# xmcd
#
# Track frame offsets:
#	150
#	12662
#	21760
#	34830
#	47227
#	59512
#	70875
#	84170
#	92742
#	109937
#
# Disc length: 1962 seconds
#
# Revision: 0
# Processed by: cddbd v1.5.1PL2 Copyright (c) Steve Scherf et al.
# Submitted via: dBpowerAMP V4.0
#
DISCID=8207a80a
DTITLE=Marty Robbins - Here's To The Ladies
DYEAR=2004
DGENRE=Country
TTITLE0=Tonight, Carmen
TTITLE1=Ruby Ann
TTITLE2=Devil Woman
TTITLE3=Joli Girl
TTITLE4=Camelia
TTITLE5=Maybelline
TTITLE6=Girl From Spanish Town
TTITLE7=To Tears Milady
TTITLE8=Laura (What's He Got That I Ain't Got)
TTITLE9=Feleena (From El Paso)
EXTD=
EXTT0=
EXTT1=
EXTT2=
EXTT3=
EXTT4=
EXTT5=
EXTT6=
EXTT7=
EXTT8=
EXTT9=
PLAYORDER=
